<svg width="16" height="30" viewBox="0 0 16 30" fill="none" xmlns="http://www.w3.org/2000/svg">
<g clip-path="url(#clip0_1002_10076)">
<path d="M5.59928e-08 22.4469C6.06337e-08 20.321 1.72336 18.5977 3.84924 18.5977L7.69849 18.5977L7.69849 22.4469C7.69849 24.5728 5.97512 26.2961 3.84924 26.2961C1.72336 26.2961 5.1352e-08 24.5728 5.59928e-08 22.4469Z" fill="#0ACF83"/>
<path d="M7.69922 14.7477C7.69922 12.6218 9.42259 10.8984 11.5484 10.8984C13.6743 10.8984 15.3977 12.6218 15.3977 14.7477C15.3977 16.8736 13.6743 18.5969 11.5484 18.5969C9.42259 18.5969 7.69922 16.8735 7.69922 14.7477Z" fill="#1ABCFE"/>
<path d="M7.27989e-08 14.7484C6.8158e-08 16.8743 1.72336 18.5977 3.84924 18.5977L7.69849 18.5977L7.69849 10.8992L3.84924 10.8992C1.72336 10.8992 7.74397e-08 12.6225 7.27989e-08 14.7484Z" fill="#A259FF"/>
<path d="M7.69922 3.19922L7.69922 10.8977L11.5485 10.8977C13.6743 10.8977 15.3977 9.17434 15.3977 7.04846C15.3977 4.92258 13.6743 3.19922 11.5485 3.19922L7.69922 3.19922Z" fill="#FF7262"/>
<path d="M7.27989e-08 7.04919C6.8158e-08 9.17507 1.72336 10.8984 3.84924 10.8984L7.69849 10.8984L7.69849 3.19995L3.84924 3.19995C1.72336 3.19995 7.74397e-08 4.92332 7.27989e-08 7.04919Z" fill="#F24E1E"/>
</g>
<defs>
<clipPath id="clip0_1002_10076">
<rect width="15.397" height="29.4977" fill="white"/>
</clipPath>
</defs>
</svg>
